<?xml version="1.0" standalone="no"?>
<!DOCTYPE svg PUBLIC "-//W3C//DTD SVG 20010904//EN"
 "http://www.w3.org/TR/2001/REC-SVG-20010904/DTD/svg10.dtd">
<svg version="1.0" xmlns="http://www.w3.org/2000/svg"
 width="2364.000000pt" height="2363.000000pt" viewBox="0 0 2364.000000 2363.000000"
 preserveAspectRatio="xMidYMid meet">

<g transform="translate(0.000000,2363.000000) scale(0.100000,-0.100000)"
fill="#000000" stroke="none">
<path d="M11370 20664 c-25 -2 -115 -8 -200 -14 -1007 -71 -2037 -329 -2966
-745 -1373 -615 -2569 -1573 -3478 -2785 -931 -1242 -1517 -2702 -1700 -4240
-46 -384 -60 -625 -60 -1055 0 -388 8 -573 40 -895 141 -1438 640 -2826 1448
-4034 1459 -2181 3807 -3606 6396 -3885 373 -40 497 -46 970 -46 473 0 597 6
970 46 1994 215 3858 1109 5290 2539 1858 1856 2792 4417 2564 7037 -142 1649
-739 3211 -1730 4533 -278 370 -501 627 -839 965 -559 560 -1166 1024 -1850
1417 -1025 589 -2154 964 -3335 1108 -364 44 -512 52 -1000 55 -261 1 -495 1
-520 -1z m650 -961 c2 -2 -4 -169 -13 -371 -19 -386 -16 -442 21 -506 27 -45
86 -76 150 -76 67 0 113 19 145 61 47 63 56 122 72 459 9 173 18 338 21 365
l5 50 130 -6 c72 -4 131 -8 133 -10 9 -11 -35 -714 -49 -784 -20 -101 -72
-210 -127 -265 -24 -24 -72 -57 -108 -74 -58 -27 -77 -31 -176 -34 -172 -6
-278 25 -368 108 -77 71 -120 165 -136 302 -8 67 14 715 26 775 4 22 6 22 137
16 72 -3 134 -8 137 -10z m1501 -175 c95 -25 123 -36 130 -52 16 -38 130 -559
158 -721 18 -99 30 -151 34 -135 3 14 16 97 30 185 19 121 128 579 141 592 1
1 58 -13 126 -31 112 -30 125 -36 123 -54 -3 -25 -282 -1093 -289 -1103 -3 -6
-263 57 -273 67 -7 7 -133 585 -160 739 -18 104 -30 151 -34 135 -3 -14 -17
-96 -31 -184 -20 -122 -128 -578 -141 -594 -2 -3 -246 59 -254 64 -2 2 255
1003 285 1107 7 23 15 22 155 -15z m-3625 -641 c101 -297 184 -544 184 -551 0
-6 -59 -31 -131 -55 l-131 -43 -36 33 c-142 133 -433 419 -512 503 -52 55 -98
102 -102 104 -4 2 18 -50 48 -115 31 -65 69 -152 86 -193 33 -83 160 -452 156
-455 -22 -14 -243 -83 -249 -78 -6 7 -363 1049 -371 1083 -2 11 31 26 128 60
l132 44 44 -36 c25 -20 172 -163 327 -317 156 -154 280 -275 278 -268 -3 7
-35 75 -71 153 -56 123 -222 581 -214 590 9 8 225 82 237 81 9 -1 79 -194 197
-540z m5125 142 c63 -28 115 -52 117 -54 4 -4 -457 -1047 -467 -1058 -4 -4
-64 18 -133 48 l-125 56 112 252 c61 139 167 377 234 530 68 152 129 277 135
277 7 0 64 -23 127 -51z m699 -345 c66 -41 120 -81 120 -87 -1 -7 -65 -205
-144 -442 -79 -236 -142 -432 -140 -434 2 -2 119 108 261 245 142 137 292 282
335 323 l77 73 115 -72 c64 -40 116 -76 116 -81 0 -4 -205 -185 -455 -403
l-455 -394 -136 85 c-75 48 -138 91 -140 97 -3 7 68 269 156 584 88 315 160
575 160 577 0 11 16 2 130 -71z m-7253 -363 c241 -223 438 -409 438 -415 0 -9
-221 -144 -238 -145 -4 -1 -49 42 -99 94 -49 52 -94 95 -99 95 -10 0 -270
-149 -285 -164 -9 -8 -3 -40 22 -126 18 -63 34 -122 34 -132 0 -19 -228 -155
-239 -142 -8 10 -274 1174 -269 1179 12 12 284 165 290 163 4 -2 204 -185 445
-407z m-1271 -236 c27 -33 55 -67 62 -76 11 -14 -3 -30 -105 -115 -65 -53
-120 -99 -122 -100 -2 -2 130 -163 293 -358 163 -196 296 -359 296 -364 0 -4
-46 -45 -101 -92 -72 -59 -105 -81 -115 -74 -7 5 -142 164 -300 354 -158 190
-291 344 -297 342 -8 -2 -149 -118 -213 -174 -22 -19 -22 -19 -94 66 -39 47
-70 90 -68 95 1 5 158 138 347 295 274 228 347 284 356 274 6 -7 34 -40 61
-73z m10198 -675 c34 -33 34 -33 -56 -130 l-68 -72 -164 151 c-90 83 -169 151
-174 151 -10 0 -142 -142 -142 -152 0 -3 63 -63 140 -133 91 -83 137 -132 132
-140 -4 -7 -39 -46 -77 -88 l-71 -76 -142 130 c-119 109 -145 129 -158 119 -8
-7 -46 -48 -84 -90 l-70 -78 175 -162 175 -162 -77 -84 c-43 -46 -81 -83 -85
-82 -13 5 -548 499 -548 507 0 4 176 199 391 434 l390 427 242 -222 c133 -121
255 -233 271 -248z m-5249 110 c1324 -82 2517 -580 3500 -1461 731 -655 1305
-1539 1609 -2476 182 -562 263 -1054 273 -1658 6 -339 -3 -540 -37 -815 -205
-1649 -1115 -3122 -2503 -4048 -817 -546 -1715 -857 -2727 -944 -305 -26 -812
-14 -1145 28 -2374 296 -4319 2046 -4861 4374 -108 468 -150 881 -141 1405 10
604 91 1096 273 1658 114 352 297 765 479 1078 708 1222 1827 2137 3153 2578
676 224 1431 324 2127 281z m-5934 -450 c124 -39 123 -32 31 -142 l-80 -95
-50 10 c-95 20 -158 -14 -213 -115 -29 -55 -34 -72 -34 -133 1 -56 6 -80 27
-121 57 -109 239 -241 366 -264 128 -24 250 48 321 188 12 24 21 47 19 52 -4
10 -128 113 -131 109 -2 -2 -27 -33 -57 -69 -30 -36 -55 -67 -56 -69 -6 -8
-173 135 -171 146 3 16 266 333 276 333 7 0 362 -289 400 -325 12 -12 12 -26
2 -86 -40 -244 -231 -476 -444 -541 -96 -29 -242 -22 -342 16 -195 75 -396
258 -456 417 -64 168 -36 334 86 504 67 94 146 157 236 189 65 22 193 20 270
-4z m11812 -376 c162 -215 198 -273 222 -358 23 -77 16 -175 -15 -236 -32 -64
-119 -144 -195 -180 -88 -42 -170 -49 -250 -22 -33 12 -63 18 -66 14 -4 -4
-50 -108 -104 -232 -54 -124 -101 -228 -104 -232 -4 -4 -48 48 -99 116 l-92
124 99 208 c65 139 96 214 91 224 -5 8 -24 33 -42 54 l-34 39 -163 -122 c-89
-68 -164 -121 -165 -119 -1 1 -40 52 -85 112 -76 100 -81 109 -64 121 10 7
218 164 463 349 245 184 448 334 452 333 3 -1 71 -88 151 -193z m-12437 -1030
c274 -146 503 -270 508 -274 5 -5 -21 -63 -57 -131 l-64 -122 -279 2 c-154 1
-351 6 -440 12 -89 6 -169 9 -179 8 -10 -2 37 -26 106 -53 68 -27 214 -95 324
-151 282 -145 286 -148 279 -165 -15 -40 -117 -221 -123 -218 -10 4 -1015 541
-1019 544 -2 1 26 59 63 128 l67 126 186 0 c195 0 628 -16 697 -25 l40 -5 -30
15 c-16 8 -86 37 -155 65 -104 42 -528 256 -552 278 -8 8 109 232 121 232 4 0
232 -120 507 -266z m13019 -95 c83 -15 151 -53 215 -118 64 -65 112 -150 134
-237 19 -72 21 -196 5 -259 -10 -38 -14 -44 -33 -40 -11 3 -59 14 -106 23
l-85 19 0 89 c-1 75 -5 98 -27 146 -37 80 -67 108 -116 108 -28 0 -45 -7 -62
-25 -23 -24 -23 -25 -14 -177 14 -249 12 -304 -18 -369 -31 -68 -84 -120 -157
-157 -49 -24 -68 -27 -151 -27 -84 0 -102 3 -152 28 -109 54 -215 187 -259
327 -33 102 -38 313 -10 359 7 11 29 8 122 -13 l114 -27 0 -122 c0 -107 3
-128 24 -175 47 -103 131 -143 187 -87 l25 25 -3 237 -3 238 28 57 c15 31 45
72 67 92 60 54 105 75 211 95 3 1 32 -4 64 -10z m716 -1299 c23 -72 40 -132
38 -134 -7 -7 -1084 -356 -1096 -356 -13 0 -98 248 -89 258 8 7 1074 359 1093
361 7 1 30 -53 54 -129z m-13785 -7 c-3 -10 -22 -74 -43 -142 l-37 -123 -139
3 -139 4 -50 -164 c-27 -90 -48 -164 -46 -166 2 -1 54 -32 116 -69 61 -37 112
-72 112 -78 0 -21 -74 -258 -80 -258 -8 0 -980 657 -997 673 -8 9 0 49 36 167
l47 155 390 5 c866 12 836 12 830 -7z m13987 -685 c16 -68 149 -870 144 -874
-5 -6 -219 -46 -222 -41 -1 1 -12 66 -25 145 -13 78 -27 147 -31 153 -4 8
-142 -12 -459 -66 -326 -56 -454 -74 -459 -66 -6 10 -45 228 -46 255 0 5 204
45 453 87 250 43 456 80 459 83 3 2 -6 71 -20 153 -14 81 -23 150 -21 152 3 4
178 37 210 40 7 1 14 -9 17 -21z m-14893 -558 c305 -45 556 -83 558 -84 3 -3
-37 -268 -41 -273 -2 -2 -1042 148 -1123 162 l-31 5 19 128 c23 154 22 151 45
146 10 -2 268 -40 573 -84z m470 -874 l0 -154 -117 -57 c-65 -31 -160 -75
-212 -98 -66 -29 -90 -44 -80 -50 8 -4 102 -46 209 -92 l195 -83 3 -152 3
-151 -33 17 c-18 9 -154 82 -301 161 l-269 144 -266 -142 c-147 -78 -275 -146
-285 -151 -16 -8 -17 0 -15 148 l3 156 165 74 c91 41 181 81 200 90 l34 16
-202 81 -202 82 0 148 0 147 73 -36 c39 -20 170 -88 289 -150 l217 -114 288
159 c158 88 291 160 296 160 4 1 7 -68 7 -153z m14608 8 l-3 -146 -125 -47
c-69 -26 -185 -69 -258 -96 -82 -30 -128 -51 -120 -56 7 -4 124 -49 261 -99
l247 -92 0 -145 c0 -134 -1 -144 -18 -139 -10 3 -181 82 -382 176 l-364 170
-203 0 -203 0 0 134 0 133 215 8 215 7 357 168 c197 93 364 169 371 169 10 1
12 -31 10 -145z m-13391 -3606 c59 -66 75 -171 49 -313 -42 -228 -42 -227 -88
-251 -36 -19 -92 -14 -157 12 -52 21 -51 44 4 62 48 16 62 27 82 65 14 28 13
32 -33 123 -41 80 -47 97 -36 112 7 9 17 28 23 42 6 14 17 37 25 52 8 14 14
37 14 50 0 63 74 93 117 46z m10898 -181 c8 -19 16 -51 19 -73 2 -22 11 -56
19 -74 9 -19 22 -51 31 -72 9 -20 16 -39 16 -43 0 -3 11 -21 25 -39 14 -18 25
-39 25 -45 0 -19 71 -151 81 -151 5 0 9 4 9 9 0 5 19 34 43 66 32 44 55 63 96
81 29 13 61 24 70 24 30 0 90 -50 113 -93 21 -38 23 -56 24 -192 0 -82 4 -217
8 -300 5 -106 4 -146 -3 -135 -9 13 -11 12 -11 -6 0 -19 6 -21 72 -23 40 -1
78 -7 85 -12 6 -6 20 -31 29 -56 16 -40 19 -43 30 -28 7 9 16 35 19 57 25 145
224 246 286 145 30 -49 18 -101 -38 -157 -39 -40 -50 -62 -94 -190 -28 -80
-53 -155 -56 -166 -4 -19 10 -29 120 -82 72 -35 155 -85 198 -119 41 -32 86
-67 101 -76 15 -10 46 -40 68 -68 49 -62 54 -111 15 -153 -20 -22 -32 -26 -82
-26 -65 -1 -114 -6 -187 -21 -27 -5 -51 -7 -54 -5 -2 3 -11 -1 -19 -9 -8 -8
-25 -15 -38 -15 -23 0 -23 0 6 31 34 37 33 43 -7 30 -31 -10 -180 -24 -154
-15 193 70 320 127 320 145 0 13 -100 98 -139 118 -23 12 -76 46 -118 76 -42
30 -79 55 -83 55 -7 0 -35 -84 -59 -176 -6 -23 -16 -88 -21 -145 -6 -57 -13
-117 -16 -133 -8 -38 -114 -142 -172 -168 -41 -19 -79 -18 -68 0 3 5 -5 15
-18 22 -25 13 -25 45 -1 65 18 15 23 38 35 155 6 58 20 137 32 175 11 39 27
91 34 117 8 26 14 53 14 61 0 13 13 45 71 174 10 24 19 55 19 70 0 31 -36 74
-56 66 -16 -6 -19 -30 -4 -35 6 -2 7 -36 1 -95 -11 -117 -33 -155 -100 -171
-52 -12 -83 -3 -124 36 -36 34 -47 76 -35 138 43 227 58 465 39 631 -14 129
-31 213 -42 213 -16 0 -78 -228 -79 -287 0 -21 -10 -44 -28 -65 -28 -33 -47
-84 -77 -214 -15 -63 -15 -74 -2 -107 34 -81 -21 -141 -142 -153 -53 -6 -59
-5 -65 13 -7 21 10 77 40 134 15 30 44 185 44 234 -1 18 -1 19 -11 3 -5 -10
-13 -18 -17 -18 -11 0 -34 41 -37 66 -7 64 -54 89 -122 63 -22 -8 -30 -7 -39
6 -17 23 8 100 46 135 l30 28 -16 52 c-8 28 -22 86 -30 128 -20 105 -30 113
-91 76 l-48 -30 -6 -78 c-4 -61 -9 -82 -24 -92 -24 -18 -34 -18 -57 3 -11 10
-18 30 -18 55 l0 38 -40 -20 c-113 -58 -150 21 -41 87 30 18 58 34 63 35 10 4
9 6 -47 228 -20 80 -42 148 -48 152 -7 4 -32 8 -57 8 -77 1 -182 28 -208 54
-20 20 -22 27 -13 45 10 17 21 21 62 21 52 0 227 -17 266 -25 34 -8 53 -45 64
-122 10 -77 57 -274 70 -294 6 -10 13 -10 33 -1 24 11 26 16 20 51 -5 34 -3
41 18 55 13 8 46 20 75 26 43 9 57 9 82 -5 38 -19 65 -58 57 -83 -11 -33 10
-72 39 -72 14 0 25 4 25 10 0 5 -22 56 -48 112 -26 57 -61 134 -77 171 -15 37
-33 66 -39 64 -6 -2 -18 -24 -27 -50 -8 -26 -19 -50 -22 -54 -13 -12 -6 82 8
122 8 22 15 50 15 62 0 31 59 71 108 72 17 1 27 -8 37 -32z m-10460 -343 c43
-46 54 -169 20 -216 -26 -35 -66 -54 -167 -80 -78 -20 -148 -53 -164 -79 -5
-9 0 -10 19 -5 21 5 33 -2 71 -39 38 -36 46 -51 46 -80 0 -41 3 -41 -114 -15
-50 11 -104 20 -121 20 -62 0 -259 -128 -375 -244 -41 -41 -80 -75 -86 -76 -9
0 -61 -50 -137 -132 -11 -11 -43 -31 -72 -43 -29 -13 -68 -37 -87 -53 -48 -42
-82 -48 -102 -17 -22 34 -20 48 14 120 24 51 38 66 75 86 25 13 45 27 45 31 0
13 -40 9 -64 -7 -18 -12 -30 -13 -49 -6 -35 14 -44 53 -23 97 l16 35 -22 -12
c-13 -7 -50 -40 -83 -74 -73 -76 -95 -88 -160 -88 -93 0 -205 85 -205 157 0
67 37 114 140 181 100 64 243 146 370 211 l75 39 1 65 c1 52 6 74 27 107 33
51 40 56 77 48 45 -10 63 -53 63 -150 0 -132 -30 -235 -69 -235 -8 0 -29 7
-47 16 -27 15 -38 15 -82 4 -99 -25 -234 -69 -277 -90 -60 -31 -128 -98 -128
-129 l0 -24 83 7 c110 9 222 33 271 58 29 15 44 18 56 10 9 -6 42 -13 73 -17
41 -5 58 -12 62 -25 7 -22 -11 -70 -25 -70 -6 0 -8 -4 -5 -10 20 -32 121 33
275 177 14 13 49 37 77 54 29 17 55 34 58 40 3 5 -19 20 -49 33 -58 26 -70 40
-80 99 -8 45 10 57 58 38 17 -6 78 -21 135 -32 l103 -20 37 24 c47 32 212 165
321 262 47 41 89 75 93 75 4 0 19 -12 32 -26z m9827 -314 c44 -21 78 -30 114
-30 55 0 104 -27 104 -58 0 -8 4 -29 10 -46 5 -17 12 -43 14 -57 3 -14 17 -38
30 -52 21 -23 33 -27 80 -27 47 0 61 -5 100 -35 25 -19 63 -46 86 -60 58 -37
77 -102 34 -119 -25 -10 -97 28 -156 81 -37 34 -68 53 -94 58 -21 4 -47 11
-56 16 -23 12 -64 94 -73 145 -10 57 -30 82 -67 88 -196 27 -278 53 -278 87 0
46 65 50 152 9z m-9655 -311 c74 -25 134 -74 162 -134 30 -63 27 -89 -11 -118
-43 -33 -276 -148 -358 -178 -50 -18 -93 -47 -185 -123 -66 -54 -138 -110
-160 -124 -22 -14 -65 -47 -95 -72 -30 -25 -71 -57 -90 -70 -19 -13 -67 -54
-106 -92 -40 -37 -77 -68 -83 -68 -22 0 -86 38 -98 58 -15 26 -3 72 32 117 15
20 25 47 25 66 0 18 7 37 16 44 20 14 7 44 -31 69 -14 9 -25 26 -25 39 -1 19
-5 17 -35 -18 -19 -22 -35 -35 -35 -30 -1 6 -6 -2 -13 -17 l-12 -27 -35 51
c-32 47 -35 58 -34 117 1 78 24 130 87 198 41 45 118 103 140 107 7 1 44 20
82 43 71 41 232 109 286 120 26 5 29 3 29 -19 0 -13 -5 -29 -12 -36 -30 -30
73 -6 171 40 36 17 101 36 145 43 45 8 92 18 106 24 38 15 70 13 137 -10z
m9946 -81 c12 -6 47 -30 77 -53 30 -23 66 -48 79 -55 21 -11 23 -10 18 5 -5
11 -3 15 5 13 19 -7 60 -97 66 -145 3 -33 1 -44 -12 -49 -31 -12 -65 7 -148
83 -111 102 -152 131 -214 149 -54 15 -71 33 -51 53 15 15 152 14 180 -1z
m489 -683 c22 -44 44 -82 48 -85 5 -3 19 -30 32 -60 43 -96 75 -139 110 -148
58 -15 68 -67 22 -117 -31 -33 -94 -33 -189 -1 -57 20 -79 34 -117 77 -26 28
-54 66 -62 84 -16 33 -21 86 -10 97 3 4 34 -2 70 -12 l64 -19 0 32 c0 31 -20
138 -38 202 -4 17 -6 39 -4 50 4 19 4 19 19 0 8 -11 33 -56 55 -100z m-8012
-384 c3 -4 37 -29 75 -55 39 -27 87 -65 108 -85 48 -45 97 -139 97 -185 0 -45
-34 -80 -69 -71 -32 8 -73 -9 -149 -62 -34 -24 -77 -49 -95 -55 -84 -29 -197
-115 -197 -149 0 -10 22 -44 48 -76 73 -88 82 -104 82 -144 0 -52 -37 -81 -92
-73 -39 7 -41 6 -115 -72 -48 -51 -68 -66 -54 -44 12 19 40 73 62 119 l41 84
-28 50 c-20 37 -27 65 -28 107 -1 88 27 122 171 201 81 44 140 85 188 130 l69
66 -92 92 c-51 50 -92 97 -92 104 0 6 -12 35 -25 62 -31 62 -31 73 -2 84 21 8
84 -9 97 -28z m1346 -393 c50 -3 97 -27 153 -79 20 -19 21 -23 8 -42 -31 -47
-96 -61 -306 -65 -131 -3 -197 0 -204 7 -6 6 -23 11 -38 11 l-26 0 1 -77 1
-78 105 -5 c109 -5 148 -19 220 -79 l25 -20 -54 -48 c-96 -85 -265 -203 -290
-203 -7 0 -52 -14 -102 -31 l-89 -32 -56 18 c-31 10 -93 19 -138 21 -44 2 -92
6 -106 10 -30 7 -60 32 -60 51 0 29 22 38 82 35 33 -2 65 1 72 7 19 16 129 25
152 13 23 -12 136 23 266 85 108 50 112 59 37 67 -102 10 -109 9 -146 -31 -41
-43 -92 -55 -190 -46 -64 6 -72 10 -52 30 7 7 -3 14 -35 23 -43 12 -47 11 -77
-14 -27 -23 -38 -26 -73 -21 -23 4 -49 16 -58 27 -25 29 -22 99 7 183 14 39
25 80 25 91 0 26 22 46 43 39 16 -7 62 -102 82 -170 7 -22 14 -40 16 -39 2 0
39 4 82 7 43 4 86 11 96 17 10 5 37 40 59 77 31 51 39 75 35 96 -9 47 38 77
67 42 15 -18 49 -19 114 -2 l48 13 -153 14 c-85 8 -221 15 -304 15 -126 0
-156 3 -187 18 -54 27 -67 46 -44 63 15 10 106 12 480 9 253 -2 484 -5 512 -7z
m2966 -149 c29 -7 39 -16 44 -37 3 -15 12 -49 19 -77 8 -27 19 -84 24 -125 11
-80 45 -237 53 -245 6 -6 97 109 106 136 4 10 37 45 73 77 60 53 72 60 125 66
49 6 61 4 77 -13 27 -26 17 -75 -28 -140 -19 -28 -35 -55 -35 -60 0 -12 -99
-111 -111 -111 -9 0 -100 -124 -123 -169 -12 -23 -15 -44 -11 -75 l7 -44 51
-6 c30 -4 69 -18 92 -33 21 -14 62 -36 90 -47 27 -12 82 -40 120 -63 67 -40
211 -94 340 -127 39 -10 97 -15 165 -13 88 1 117 -2 177 -22 68 -23 74 -23 91
-8 25 23 75 22 97 -3 15 -17 16 -23 5 -50 -15 -37 -48 -55 -114 -64 -27 -3
-55 -11 -61 -16 -25 -20 -161 -53 -220 -52 -138 1 -402 114 -582 250 -59 44
-85 57 -139 68 -37 8 -73 19 -79 24 -8 7 -9 -9 -2 -63 11 -91 2 -268 -19 -336
-8 -28 -26 -68 -39 -88 -14 -20 -25 -42 -25 -50 0 -16 -25 -46 -90 -106 -24
-23 -55 -52 -68 -64 -12 -13 -25 -23 -29 -23 -3 0 -27 -18 -53 -40 -26 -22
-60 -45 -76 -51 -37 -16 -184 -18 -184 -3 0 6 29 38 65 71 36 33 65 66 65 72
0 7 20 21 44 31 24 11 49 27 56 35 7 8 17 15 23 15 19 0 89 83 108 128 30 70
40 163 33 298 -4 68 -11 124 -15 124 -5 0 -6 -7 -3 -15 9 -22 -35 -105 -77
-147 -78 -76 -206 -72 -228 7 -11 40 -7 56 21 97 10 14 16 33 13 40 -3 8 1 21
10 28 8 7 15 18 15 24 0 6 9 19 20 29 11 9 20 26 20 37 0 11 7 23 15 26 8 3
17 14 20 25 4 10 11 19 17 19 13 0 41 34 75 90 l26 44 -17 81 c-49 225 -58
279 -66 389 -8 104 -11 122 -30 136 -17 13 -18 18 -8 28 7 7 13 30 13 50 0 33
3 37 30 43 45 10 47 10 87 -2z m-4086 -200 c8 -17 22 -48 29 -68 11 -33 11
-39 -6 -60 -11 -13 -19 -31 -19 -40 0 -9 -7 -25 -15 -35 -8 -11 -15 -28 -15
-39 0 -24 -56 -77 -81 -77 -30 0 -59 69 -59 140 0 71 22 122 76 174 46 44 69
45 90 5z m-419 -379 c-12 -22 -52 -84 -88 -138 -155 -227 -195 -300 -208 -379
-11 -71 -37 -118 -93 -168 -61 -54 -109 -61 -149 -21 -91 92 -91 131 0 171 86
38 317 274 514 527 21 26 40 48 42 48 2 0 -6 -18 -18 -40z m972 -68 c30 -20
56 -42 58 -47 3 -11 -57 -77 -122 -135 -22 -19 -71 -73 -110 -118 -86 -102
-121 -126 -170 -116 -19 3 -35 9 -35 13 0 4 -14 12 -31 18 -24 9 -29 16 -24
32 3 10 1 22 -5 26 -5 3 -7 18 -4 32 7 25 6 26 -30 20 l-38 -6 39 28 c41 30
73 71 73 94 0 7 -11 24 -25 37 -30 29 -24 41 18 33 42 -8 90 -37 122 -75 l26
-31 60 59 c32 32 59 62 59 68 0 5 -18 5 -42 1 -76 -14 -136 -9 -189 15 -27 13
-49 26 -49 30 0 14 228 57 315 59 43 1 58 -5 104 -37z m-527 -19 c21 -26 38
-93 38 -155 0 -42 -6 -62 -25 -88 -32 -43 -43 -50 -83 -50 -52 0 -71 30 -71
110 -1 75 23 137 66 175 33 29 55 31 75 8z m148 -446 c18 -4 36 -4 42 -1 21
13 210 32 239 24 59 -17 119 -80 76 -80 -7 0 -17 -8 -24 -19 -16 -25 -88 -42
-208 -48 -56 -3 -109 -11 -121 -18 -20 -13 -73 -156 -150 -410 -15 -49 -40
-119 -55 -155 -15 -36 -35 -94 -44 -129 -9 -36 -25 -76 -36 -89 -10 -14 -19
-33 -19 -42 0 -35 -116 -42 -146 -9 -29 32 -35 135 -11 172 10 15 15 27 10 27
-4 0 -3 4 2 8 13 9 64 131 125 297 27 72 62 167 79 213 17 46 31 88 31 94 0
15 -130 2 -166 -17 -48 -25 -120 -19 -214 18 -67 26 -86 38 -88 55 -5 33 26
41 298 69 220 23 247 28 263 47 34 41 47 60 48 71 0 5 9 -8 19 -31 14 -32 25
-42 50 -47z"/>
<path d="M7974 18455 c84 -282 115 -386 120 -412 4 -18 11 -35 16 -38 10 -6
202 105 198 115 -8 20 -340 352 -334 335z"/>
<path d="M8470 15530 l-395 -229 -3 -43 c-2 -24 -90 -1274 -195 -2778 l-192
-2735 -147 -3 -148 -3 0 -309 0 -310 585 0 585 0 0 265 0 265 -85 0 -85 0 0
28 c0 41 268 5073 276 5169 l6 82 101 59 102 58 3 357 c1 196 -1 357 -5 356
-5 0 -186 -103 -403 -229z"/>
<path d="M9122 15403 l3 -357 102 -58 101 -59 6 -82 c8 -98 276 -5127 276
-5168 l0 -29 -85 0 -85 0 0 -265 0 -265 970 0 970 0 0 265 0 265 -85 0 -85 0
0 29 c0 42 268 5071 275 5168 l7 82 101 59 102 58 3 357 c1 196 0 357 -3 357
-7 0 -787 -450 -796 -459 -4 -3 -94 -1254 -200 -2778 l-194 -2773 -95 0 -95 0
-194 2773 c-106 1524 -196 2775 -200 2778 -9 9 -789 459 -796 459 -3 0 -4
-161 -3 -357z"/>
<path d="M11942 15403 l3 -357 102 -58 101 -59 6 -82 c8 -94 276 -5132 276
-5171 0 -26 0 -26 -85 -26 l-85 0 0 -265 0 -265 970 0 970 0 0 265 0 265 -85
0 -85 0 0 28 c0 42 269 5098 276 5179 l6 72 101 59 102 58 3 357 c1 196 0 357
-3 357 -7 0 -787 -449 -796 -459 -4 -3 -94 -1254 -200 -2778 l-194 -2773 -97
0 -98 0 0 32 c0 18 -85 1255 -190 2750 -104 1494 -190 2727 -190 2741 0 22
-43 50 -400 256 -220 127 -402 231 -405 231 -3 0 -4 -161 -3 -357z"/>
<path d="M14762 15403 l3 -357 102 -58 101 -59 6 -82 c7 -94 276 -5133 276
-5172 0 -25 -1 -25 -85 -25 l-85 0 0 -265 0 -265 585 0 585 0 0 310 0 309
-147 3 -148 3 -3 30 c-7 92 -382 5476 -382 5497 0 24 -37 47 -400 257 -220
127 -402 231 -405 231 -3 0 -4 -161 -3 -357z"/>
<path d="M11270 8341 c-96 -31 -177 -107 -207 -194 -27 -78 -24 -216 5 -282
13 -27 33 -60 45 -73 70 -75 189 -101 286 -63 29 12 55 20 57 18 7 -6 -18 -82
-43 -131 -67 -132 -190 -213 -365 -241 -24 -4 -38 -11 -38 -20 0 -11 13 -15
53 -15 132 1 303 66 404 155 112 98 189 257 200 409 18 259 -100 433 -302 442
-38 2 -81 0 -95 -5z m120 -56 c58 -30 82 -125 84 -328 1 -124 0 -129 -23 -148
-30 -25 -112 -26 -153 -1 -49 29 -66 67 -78 182 -6 58 -7 137 -4 175 6 61 11
74 40 103 37 37 84 43 134 17z"/>
<path d="M12019 8323 c-48 -125 -159 -438 -159 -449 0 -11 21 -14 94 -14 104
0 227 -20 281 -46 101 -48 160 -184 121 -277 -42 -101 -162 -123 -249 -47 -47
40 -71 50 -120 50 -65 0 -111 -34 -115 -84 -4 -50 24 -81 92 -101 209 -62 469
88 512 295 30 147 -38 270 -190 341 -55 26 -93 36 -252 66 l-42 8 21 53 20 52
187 0 c141 0 190 3 198 13 10 12 62 147 62 161 0 3 -101 6 -225 6 l-225 0 -11
-27z"/>
<path d="M12890 8341 c-151 -50 -223 -205 -160 -349 15 -34 43 -71 82 -107
l59 -54 -38 -16 c-160 -67 -196 -289 -66 -406 58 -53 100 -64 233 -64 133 0
178 15 244 81 54 54 78 115 78 194 1 105 -41 179 -138 246 -51 35 -66 54 -44
54 18 0 81 63 101 101 26 51 26 147 0 197 -25 48 -66 87 -116 108 -45 18 -195
28 -235 15z m176 -72 c76 -70 86 -245 18 -320 -17 -18 -18 -18 -96 24 -154 82
-189 145 -143 260 4 10 24 29 44 43 49 34 137 31 177 -7z m8 -556 c98 -76 120
-166 63 -252 -59 -89 -190 -95 -260 -12 -67 80 -58 227 19 328 l25 33 48 -25
c26 -15 74 -47 105 -72z"/>
<path d="M10508 8251 c-110 -50 -188 -92 -188 -100 0 -10 7 -11 28 -6 79 20
98 18 133 -13 l34 -30 3 -309 c2 -292 1 -310 -17 -340 -28 -44 -66 -67 -125
-73 -27 -3 -51 -11 -54 -17 -3 -10 53 -13 257 -13 225 0 261 2 261 15 0 9 -9
15 -25 15 -41 0 -82 27 -94 61 -7 22 -11 173 -11 460 0 235 -3 430 -7 432 -5
2 -92 -35 -195 -82z"/>
<path d="M17738 16442 c-65 -48 -117 -91 -118 -96 -1 -23 121 -161 162 -182
79 -41 204 17 223 104 3 15 -1 47 -10 72 -15 43 -118 190 -133 190 -4 0 -60
-40 -124 -88z"/>
<path d="M4470 14040 c1 -3 81 -51 178 -107 97 -57 191 -112 208 -123 l30 -20
34 110 c18 61 31 113 28 115 -7 7 -478 31 -478 25z"/>
<path d="M17120 7875 c0 -22 94 -241 107 -252 9 -7 29 -10 47 -7 61 11 63 13
30 42 -17 15 -36 45 -42 67 -9 30 -20 45 -47 59 -20 11 -49 38 -65 60 -17 22
-30 36 -30 31z"/>
<path d="M17307 7760 c-3 -8 -10 -30 -16 -47 l-10 -33 40 0 c47 0 52 19 15 65
-19 23 -26 26 -29 15z"/>
<path d="M17276 7488 c-9 -12 -16 -34 -16 -48 0 -40 12 -100 20 -100 7 0 30
120 30 154 0 23 -16 20 -34 -6z"/>
<path d="M6783 7329 c-22 -4 -59 -17 -81 -28 -24 -12 -71 -23 -114 -27 -40 -3
-91 -11 -113 -16 -22 -6 -60 -10 -85 -9 -51 1 -62 -5 -110 -68 -27 -35 -30
-42 -14 -38 10 3 46 11 79 17 50 8 65 16 90 46 38 45 58 38 76 -23 9 -35 10
-56 1 -87 -6 -22 -9 -42 -7 -44 2 -2 36 21 77 51 40 30 120 80 178 111 58 31
116 65 129 75 23 18 23 19 5 28 -32 17 -67 21 -111 12z"/>
<path d="M6080 6999 c-50 -22 -100 -66 -100 -86 0 -11 6 -11 29 2 16 8 56 24
88 36 69 26 76 31 67 52 -8 22 -29 21 -84 -4z"/>
<path d="M6341 6993 c1 -10 4 -29 8 -41 l6 -24 29 23 29 23 -23 18 c-28 23
-50 23 -49 1z"/>
<path d="M5930 6870 c0 -19 3 -21 12 -12 9 9 9 15 0 24 -9 9 -12 7 -12 -12z"/>
<path d="M6185 6880 c-11 -5 -36 -9 -55 -10 -19 0 -46 -7 -59 -14 l-24 -13 34
-25 c56 -42 58 -42 97 -11 20 16 50 37 65 46 15 10 25 22 22 27 -7 12 -53 12
-80 0z"/>
<path d="M9706 4801 c-6 -9 39 -51 55 -51 12 0 31 38 22 43 -20 12 -72 17 -77
8z"/>
</g>
</svg>
